<?xml version="1.0" encoding="utf-8"?>
<!-- Generator: Adobe Illustrator 25.2.1, SVG Export Plug-In . SVG Version: 6.00 Build 0)  -->
<svg version="1.1" id="Layer_1" xmlns="http://www.w3.org/2000/svg" xmlns:xlink="http://www.w3.org/1999/xlink" x="0px" y="0px"
	 viewBox="0 0 1366 358" style="enable-background:new 0 0 1366 358;" xml:space="preserve">
<style type="text/css">
	.st0{fill:none;stroke:#191B21;stroke-miterlimit:10;}
</style>
<g>
	<path class="st0" d="M13.43,103.91V91.94h82.34v11.97l-27.74,3.21c-0.2,12.46-0.34,24.97-0.44,37.52
		c-0.1,12.56-0.15,25.16-0.15,37.81v18.4L143.37,108l-21.02-4.09V91.94h67.16v11.97l-28.32,3.8l-48.76,58.69l58.98,106l22.48,2.92
		v11.97h-75.04v-11.97l23.94-2.92l-46.43-86.72l-28.91,34.75c0,7.79,0.04,16.06,0.15,24.82c0.1,8.76,0.24,17.72,0.44,26.86
		l27.74,3.21v11.97H13.43v-11.97l26.86-3.21c0.39-12.26,0.58-24.72,0.58-37.38c0-12.65,0-25.3,0-37.96v-14.31
		c0-12.65,0-25.26,0-37.81s-0.2-25.06-0.58-37.52L13.43,103.91z"/>
	<path class="st0" d="M211.11,291.08c-19.66,0-35.43-6.37-47.3-19.13C151.93,259.21,146,241.64,146,219.25
		c0-14.99,3.07-28.03,9.2-39.13c6.13-11.1,14.31-19.76,24.53-25.99c10.22-6.23,21.36-9.34,33.43-9.34c10.12,0,19.27,2.24,27.45,6.72
		c8.18,4.48,14.7,10.85,19.56,19.13c4.86,8.28,7.3,18.35,7.3,30.22c0,3.31-0.2,6.38-0.58,9.2c-0.39,2.82-0.88,5.21-1.46,7.15h-93.15
		c0.39,17.91,4.86,31.54,13.43,40.88c8.56,9.34,19.86,14.02,33.87,14.02c9.34,0,17.13-1.9,23.36-5.69
		c6.23-3.8,11.97-8.71,17.23-14.75l7.01,5.55c-5.45,10.32-12.85,18.54-22.19,24.67C235.64,288.02,224.35,291.08,211.11,291.08z
		 M211.41,158.22c-5.45,0-10.95,1.56-16.5,4.67c-5.55,3.12-10.32,8.08-14.31,14.89c-3.99,6.82-6.57,15.87-7.74,27.16h53.14
		c7.01,0,11.63-1.46,13.87-4.38c2.24-2.92,3.36-6.52,3.36-10.8c0-5.64-1.41-10.85-4.23-15.62c-2.82-4.77-6.62-8.61-11.39-11.53
		C222.84,159.68,217.44,158.22,211.41,158.22z"/>
	<path class="st0" d="M303.38,291.08c-19.66,0-35.43-6.37-47.3-19.13c-11.88-12.75-17.81-30.32-17.81-52.71
		c0-14.99,3.07-28.03,9.2-39.13c6.13-11.1,14.31-19.76,24.53-25.99c10.22-6.23,21.36-9.34,33.43-9.34c10.12,0,19.27,2.24,27.45,6.72
		c8.18,4.48,14.7,10.85,19.56,19.13c4.86,8.28,7.3,18.35,7.3,30.22c0,3.31-0.2,6.38-0.58,9.2c-0.39,2.82-0.88,5.21-1.46,7.15h-93.15
		c0.39,17.91,4.86,31.54,13.43,40.88c8.56,9.34,19.86,14.02,33.87,14.02c9.34,0,17.13-1.9,23.36-5.69
		c6.23-3.8,11.97-8.71,17.23-14.75l7.01,5.55c-5.45,10.32-12.85,18.54-22.19,24.67C327.91,288.02,316.62,291.08,303.38,291.08z
		 M303.68,158.22c-5.45,0-10.95,1.56-16.5,4.67c-5.55,3.12-10.32,8.08-14.31,14.89c-3.99,6.82-6.57,15.87-7.74,27.16h53.14
		c7.01,0,11.63-1.46,13.87-4.38c2.24-2.92,3.36-6.52,3.36-10.8c0-5.64-1.41-10.85-4.23-15.62c-2.82-4.77-6.62-8.61-11.39-11.53
		C315.11,159.68,309.71,158.22,303.68,158.22z"/>
	<path class="st0" d="M387.19,240.57c-7.59,0-14.8-1.07-21.61-3.21c-4.87,6.23-7.3,12.46-7.3,18.69c0,3.9,1.12,7.01,3.36,9.34
		c2.24,2.34,6.76,3.5,13.58,3.5h38.25c16.16,0,28.03,3.31,35.62,9.93c7.59,6.62,11.39,15.86,11.39,27.74
		c0,8.37-2.68,16.45-8.03,24.24c-5.36,7.78-13.39,14.11-24.09,18.98c-10.71,4.86-24.04,7.3-40,7.3c-21.22,0-36.6-3.31-46.14-9.93
		c-9.54-6.62-14.31-15.09-14.31-25.4c0-6.23,2.09-12.02,6.28-17.37c4.18-5.36,11.63-10.66,22.34-15.91
		c-12.85-3.5-19.27-10.9-19.27-22.19c0-4.67,1.51-9.54,4.53-14.6c3.02-5.06,8.13-11,15.33-17.81c-7.01-3.89-12.51-9.24-16.5-16.06
		c-3.99-6.81-5.99-15.18-5.99-25.11c0-15.38,5.01-27.2,15.04-35.48c10.02-8.27,22.63-12.41,37.81-12.41
		c15.38,0,27.74,3.8,37.08,11.39l33-11.39l4.38,2.92v18.4h-28.62c4.48,7.2,6.72,16.06,6.72,26.57c0,15.38-5.01,27.21-15.04,35.48
		C414.97,236.43,402.37,240.57,387.19,240.57z M351.86,317.07c0,9.54,3.4,16.35,10.22,20.44c6.81,4.09,15.96,6.13,27.45,6.13
		c15.96,0,28.13-2.88,36.5-8.61c8.37-5.74,12.56-12.7,12.56-20.88c0-6.42-2.24-11.83-6.72-16.21c-4.48-4.38-11.97-6.57-22.48-6.57
		h-34.16c-1.95,0-3.94-0.05-5.99-0.15c-2.04-0.1-4.04-0.25-5.99-0.44c-4.09,4.28-7.01,8.51-8.76,12.7
		C352.73,307.68,351.86,312.2,351.86,317.07z M386.6,228.89c9.34,0,16.64-3.5,21.9-10.51c5.26-7.01,7.88-15.86,7.88-26.57
		c0-10.32-2.48-18.73-7.45-25.26c-4.96-6.52-12.02-9.78-21.17-9.78c-9.15,0-16.35,3.36-21.61,10.07
		c-5.26,6.72-7.88,15.43-7.88,26.13c0,10.71,2.48,19.37,7.45,25.99C370.69,225.58,377.65,228.89,386.6,228.89z"/>
	<path class="st0" d="M527.64,290.21c-7.01,0-12.85-2.04-17.52-6.13s-7.59-9.54-8.76-16.35c-7.98,7.79-14.99,13.63-21.02,17.52
		c-6.04,3.89-13.34,5.84-21.9,5.84c-10.71,0-19.91-3.07-27.59-9.2c-7.69-6.13-11.53-15.23-11.53-27.3c0-5.64,1.31-10.9,3.94-15.77
		c2.63-4.86,7.45-9.64,14.45-14.31s17.03-9.34,30.08-14.02c4.48-1.56,9.64-3.21,15.48-4.96c5.84-1.75,11.68-3.31,17.52-4.67v-7.3
		c0-14.21-2.14-23.65-6.42-28.32c-4.28-4.67-11.29-7.01-21.02-7.01c-2.14,0-4.53,0.1-7.15,0.29c-2.63,0.2-5.5,0.68-8.61,1.46
		l-5.55,18.98c-2.73,9.34-7.79,14.02-15.18,14.02c-8.18,0-12.75-3.99-13.72-11.97c2.72-11.1,9.2-19.9,19.42-26.43
		c10.22-6.52,22.73-9.78,37.52-9.78c15.38,0,26.76,3.85,34.16,11.53c7.4,7.69,11.1,20.78,11.1,39.27v62.2
		c0,6.23,0.97,10.66,2.92,13.29c1.94,2.63,4.48,3.94,7.59,3.94c2.53,0,4.67-0.58,6.42-1.75s3.4-2.72,4.96-4.67l5.84,6.42
		c-3.5,5.65-7.35,9.59-11.53,11.83C537.32,289.08,532.7,290.21,527.64,290.21z M445.3,250.2c0,7.79,2.24,13.34,6.72,16.64
		c4.48,3.31,10.02,4.96,16.64,4.96c2.92,0,5.69-0.39,8.32-1.17c2.63-0.78,5.79-2.29,9.49-4.53c3.7-2.24,8.47-5.5,14.31-9.78v-44.68
		c-5.06,1.36-10.03,2.88-14.89,4.53c-4.87,1.66-8.86,3.07-11.97,4.23c-8.37,3.31-14.6,6.72-18.69,10.22
		c-4.09,3.5-6.77,6.91-8.03,10.22C445.93,244.17,445.3,247.28,445.3,250.2z"/>
	<path class="st0" d="M508.37,287.29v-10.51l21.61-4.09c0.19-7.39,0.34-15.38,0.44-23.94c0.1-8.56,0.15-16.16,0.15-22.78v-14.02
		c0-7.98-0.05-14.6-0.15-19.86c-0.1-5.26-0.34-10.8-0.73-16.64l-23.07-2.63V162.6l40.88-17.81l4.38,2.92l2.34,23.36
		c7.2-7.78,15.48-14.11,24.82-18.98c9.34-4.86,18.49-7.3,27.45-7.3c12.65,0,22.05,4.23,28.18,12.7c6.13,8.47,9.2,22.24,9.2,41.32
		v27.16c0,6.62,0.05,14.21,0.15,22.78c0.1,8.57,0.24,16.55,0.44,23.94l20.44,4.09v10.51h-67.74v-10.51l21.61-4.09
		c0.19-7.2,0.34-15.13,0.44-23.8c0.1-8.66,0.15-16.3,0.15-22.92v-24.82c0-13.43-1.9-22.68-5.69-27.74
		c-3.8-5.06-9.98-7.59-18.54-7.59c-6.62,0-13.04,1.36-19.27,4.09c-6.23,2.73-13.04,7.2-20.44,13.43v42.63
		c0,6.42,0.05,13.97,0.15,22.63c0.1,8.66,0.24,16.7,0.44,24.09l20.15,4.09v10.51H508.37z"/>
	<path class="st0" d="M642.1,103.91V91.94h85.56v11.97l-26.86,3.21c-0.2,12.26-0.34,24.67-0.44,37.23
		c-0.1,12.56-0.15,25.16-0.15,37.81v45.55c0,14.79-0.25,27.16-0.73,37.08c-0.49,9.93-1.41,18.2-2.77,24.82
		c-1.36,6.62-3.26,12.16-5.69,16.64c-2.44,4.48-5.69,8.76-9.78,12.85c-4.87,4.86-10.76,8.71-17.67,11.53
		c-6.91,2.82-14.36,4.23-22.34,4.23c-5.45,0-10.66-1.02-15.62-3.07c-4.96-2.04-8.22-5.79-9.78-11.24c0.98-5.45,3.07-9.25,6.28-11.39
		c3.21-2.14,7.15-3.21,11.83-3.21c6.62,0,13.92,3.02,21.9,9.05l7.3,5.84c4.28-4.09,7.25-8.96,8.91-14.6
		c1.65-5.65,2.48-12.66,2.48-21.02c0-3.5-0.05-7.78-0.15-12.85c-0.1-5.06-0.25-11.68-0.44-19.86c-0.2-8.18-0.39-18.59-0.58-31.24
		c-0.2-12.65-0.44-28.32-0.73-47.01c-0.29-18.69-0.54-41.07-0.73-67.16L642.1,103.91z"/>
	<path class="st0" d="M755.1,291.08c-11.29,0-22.04-2.68-32.27-8.03c-10.22-5.35-18.54-13.43-24.96-24.24
		c-6.43-10.8-9.64-24.19-9.64-40.15c0-16.16,3.21-29.73,9.64-40.73c6.42-11,14.75-19.27,24.96-24.82
		c10.22-5.55,20.97-8.32,32.27-8.32c11.29,0,22.05,2.77,32.27,8.32c10.22,5.55,18.59,13.82,25.11,24.82
		c6.52,11,9.78,24.58,9.78,40.73c0,15.96-3.26,29.35-9.78,40.15c-6.53,10.8-14.89,18.88-25.11,24.24
		C777.15,288.4,766.39,291.08,755.1,291.08z M755.1,277.94c12.65,0,22.38-5.01,29.2-15.04c6.81-10.02,10.22-24.77,10.22-44.24
		c0-19.66-3.41-34.65-10.22-44.97c-6.82-10.32-16.55-15.48-29.2-15.48c-12.66,0-22.34,5.16-29.05,15.48
		c-6.72,10.32-10.07,25.31-10.07,44.97c0,19.47,3.36,34.21,10.07,44.24C732.76,272.93,742.44,277.94,755.1,277.94z"/>
	<path class="st0" d="M784.59,287.29v-10.51l21.9-4.09c0.19-7.39,0.34-15.43,0.44-24.09c0.1-8.66,0.15-16.21,0.15-22.63V97.78
		l-23.94-2.92V84.64l44.68-13.14l4.09,2.34l-1.17,41.46v56.36c7.2-7.98,15.57-14.45,25.11-19.42c9.54-4.96,18.98-7.45,28.32-7.45
		c12.65,0,22.05,4.23,28.18,12.7c6.13,8.47,9.2,22.24,9.2,41.32v27.16c0,6.62,0.05,14.21,0.15,22.78c0.1,8.57,0.24,16.55,0.44,23.94
		l20.44,4.09v10.51h-67.74v-10.51l21.32-3.79c0.19-7.4,0.34-15.43,0.44-24.09c0.1-8.66,0.15-16.3,0.15-22.92v-24.82
		c0-13.43-1.85-22.68-5.55-27.74c-3.7-5.06-9.83-7.59-18.4-7.59c-7.2,0-14.02,1.46-20.44,4.38c-6.42,2.92-13.34,7.79-20.73,14.6
		v41.17c0,6.42,0.04,13.97,0.15,22.63c0.1,8.66,0.24,16.7,0.44,24.09l20.15,4.09v10.51H784.59z"/>
	<path class="st0" d="M906.36,287.29v-10.51l21.61-4.09c0.19-7.39,0.34-15.38,0.44-23.94c0.1-8.56,0.15-16.16,0.15-22.78v-14.02
		c0-7.98-0.05-14.6-0.15-19.86c-0.1-5.26-0.34-10.8-0.73-16.64l-23.07-2.63V162.6l40.88-17.81l4.38,2.92l2.34,23.36
		c7.2-7.78,15.48-14.11,24.82-18.98c9.34-4.86,18.49-7.3,27.45-7.3c12.65,0,22.05,4.23,28.18,12.7c6.13,8.47,9.2,22.24,9.2,41.32
		v27.16c0,6.62,0.05,14.21,0.15,22.78c0.1,8.57,0.24,16.55,0.44,23.94l20.44,4.09v10.51h-67.74v-10.51l21.61-4.09
		c0.19-7.2,0.34-15.13,0.44-23.8c0.1-8.66,0.15-16.3,0.15-22.92v-24.82c0-13.43-1.9-22.68-5.69-27.74
		c-3.8-5.06-9.98-7.59-18.54-7.59c-6.62,0-13.04,1.36-19.27,4.09c-6.23,2.73-13.04,7.2-20.44,13.43v42.63
		c0,6.42,0.04,13.97,0.15,22.63c0.1,8.66,0.24,16.7,0.44,24.09l20.15,4.09v10.51H906.36z"/>
	<path class="st0" d="M1073.38,291.08c-8.18,0-15.67-0.93-22.48-2.77c-6.82-1.85-13.82-4.62-21.02-8.32l-1.17-32.12h16.06l5.55,25.4
		c6.81,3.12,14.7,4.67,23.65,4.67c11.1,0,19.32-2.04,24.67-6.13c5.35-4.09,8.03-9.44,8.03-16.06c0-6.23-2.24-11.24-6.72-15.04
		c-4.48-3.8-11.29-7.25-20.44-10.37l-13.43-4.96c-10.71-3.89-19.27-8.95-25.7-15.18c-6.42-6.23-9.64-14.31-9.64-24.24
		c0-7.2,1.94-13.92,5.84-20.15c3.89-6.23,9.64-11.29,17.23-15.18c7.59-3.89,16.84-5.84,27.74-5.84c7.98,0,15.23,1.02,21.75,3.07
		c6.52,2.04,12.89,5.01,19.13,8.91l-1.17,29.78h-15.18l-4.67-23.36c-6.62-3.31-13.34-4.96-20.15-4.96c-8.96,0-15.72,1.8-20.29,5.4
		c-4.58,3.6-6.86,8.42-6.86,14.45c0,6.42,1.99,11.29,5.99,14.6c3.99,3.31,10.95,6.82,20.88,10.51l9.05,3.21
		c14.6,5.45,24.97,11.68,31.1,18.69c6.13,7.01,9.2,15.09,9.2,24.24c0,7.4-2.14,14.26-6.42,20.59c-4.28,6.33-10.61,11.44-18.98,15.33
		C1096.54,289.13,1086.03,291.08,1073.38,291.08z"/>
	<path class="st0" d="M1165.06,291.08c-11.29,0-22.05-2.68-32.27-8.03c-10.22-5.35-18.54-13.43-24.97-24.24
		c-6.42-10.8-9.64-24.19-9.64-40.15c0-16.16,3.21-29.73,9.64-40.73c6.42-11,14.75-19.27,24.97-24.82
		c10.22-5.55,20.97-8.32,32.27-8.32c11.29,0,22.05,2.77,32.27,8.32c10.22,5.55,18.59,13.82,25.11,24.82
		c6.52,11,9.78,24.58,9.78,40.73c0,15.96-3.26,29.35-9.78,40.15c-6.52,10.8-14.89,18.88-25.11,24.24
		C1187.11,288.4,1176.35,291.08,1165.06,291.08z M1165.06,277.94c12.65,0,22.38-5.01,29.2-15.04c6.81-10.02,10.22-24.77,10.22-44.24
		c0-19.66-3.41-34.65-10.22-44.97c-6.82-10.32-16.55-15.48-29.2-15.48c-12.66,0-22.34,5.16-29.05,15.48
		c-6.72,10.32-10.07,25.31-10.07,44.97c0,19.47,3.36,34.21,10.07,44.24C1142.72,272.93,1152.41,277.94,1165.06,277.94z"/>
	<path class="st0" d="M1200.39,287.29v-10.51l21.61-4.09c0.19-7.39,0.34-15.38,0.44-23.94c0.1-8.56,0.15-16.16,0.15-22.78v-14.02
		c0-7.98-0.05-14.6-0.15-19.86c-0.1-5.26-0.34-10.8-0.73-16.64l-23.07-2.63V162.6l40.88-17.81l4.38,2.92l2.34,23.36
		c7.2-7.78,15.48-14.11,24.82-18.98c9.34-4.86,18.49-7.3,27.45-7.3c12.65,0,22.05,4.23,28.18,12.7c6.13,8.47,9.2,22.24,9.2,41.32
		v27.16c0,6.62,0.05,14.21,0.15,22.78c0.1,8.57,0.24,16.55,0.44,23.94l20.44,4.09v10.51h-67.74v-10.51l21.61-4.09
		c0.19-7.2,0.34-15.13,0.44-23.8c0.1-8.66,0.15-16.3,0.15-22.92v-24.82c0-13.43-1.9-22.68-5.69-27.74
		c-3.8-5.06-9.98-7.59-18.54-7.59c-6.62,0-13.04,1.36-19.27,4.09c-6.23,2.73-13.04,7.2-20.44,13.43v42.63
		c0,6.42,0.04,13.97,0.15,22.63c0.1,8.66,0.24,16.7,0.44,24.09l20.15,4.09v10.51H1200.39z"/>
</g>
</svg>
