<?xml version="1.0" encoding="utf-8"?>
<!-- Generator: Adobe Illustrator 25.2.1, SVG Export Plug-In . SVG Version: 6.00 Build 0)  -->
<svg version="1.1" id="Layer_1" xmlns="http://www.w3.org/2000/svg" xmlns:xlink="http://www.w3.org/1999/xlink" x="0px" y="0px"
	 viewBox="0 0 1366 358" style="enable-background:new 0 0 1366 358;" xml:space="preserve">
<style type="text/css">
	.st0{fill:#FFFFFF;stroke:#191B21;stroke-miterlimit:10;stroke-dasharray:1000;}
</style>
<g>
	<path class="st0" d="M11.33,145.81v-7.75h53.3v7.75l-17.95,2.08c-0.13,8.07-0.22,16.16-0.28,24.29
		c-0.06,8.13-0.09,16.29-0.09,24.48v11.91l49.14-60.1l-13.61-2.65v-7.75h43.47v7.75l-18.33,2.46L75.4,186.25l38.18,68.61l14.55,1.89
		v7.75H79.56v-7.75l15.5-1.89L65,198.73l-18.71,22.49c0,5.04,0.03,10.39,0.09,16.07c0.06,5.67,0.16,11.47,0.28,17.39l17.95,2.08
		v7.75h-53.3v-7.75l17.39-2.08c0.25-7.94,0.38-16,0.38-24.19c0-8.19,0-16.38,0-24.57v-9.26c0-8.19,0-16.35,0-24.48
		s-0.13-16.22-0.38-24.29L11.33,145.81z"/>
	<path class="st0" d="M175.95,266.96c-12.73,0-22.93-4.13-30.62-12.38c-7.69-8.25-11.53-19.62-11.53-34.11
		c0-9.7,1.98-18.14,5.95-25.33s9.26-12.79,15.88-16.82c6.62-4.03,13.83-6.05,21.64-6.05c6.55,0,12.47,1.45,17.77,4.35
		c5.29,2.9,9.51,7.03,12.66,12.38c3.15,5.36,4.73,11.88,4.73,19.56c0,2.14-0.13,4.13-0.38,5.95c-0.25,1.83-0.57,3.37-0.94,4.63
		h-60.29c0.25,11.59,3.15,20.41,8.69,26.46c5.54,6.05,12.85,9.07,21.92,9.07c6.05,0,11.09-1.23,15.12-3.69
		c4.03-2.46,7.75-5.64,11.15-9.54l4.54,3.59c-3.53,6.68-8.32,12-14.36,15.97C191.82,264.97,184.51,266.96,175.95,266.96z
		 M176.14,180.96c-3.53,0-7.09,1.01-10.68,3.02c-3.59,2.02-6.68,5.23-9.26,9.64c-2.58,4.41-4.25,10.27-5.01,17.58h34.4
		c4.54,0,7.53-0.95,8.98-2.83c1.45-1.89,2.17-4.22,2.17-6.99c0-3.65-0.92-7.02-2.74-10.11c-1.83-3.09-4.29-5.58-7.37-7.47
		C183.54,181.91,180.04,180.96,176.14,180.96z"/>
	<path class="st0" d="M272.34,266.96c-12.73,0-22.93-4.13-30.62-12.38c-7.69-8.25-11.53-19.62-11.53-34.11
		c0-9.7,1.98-18.14,5.95-25.33s9.26-12.79,15.88-16.82c6.62-4.03,13.83-6.05,21.64-6.05c6.55,0,12.47,1.45,17.77,4.35
		c5.29,2.9,9.51,7.03,12.66,12.38c3.15,5.36,4.73,11.88,4.73,19.56c0,2.14-0.13,4.13-0.38,5.95c-0.25,1.83-0.57,3.37-0.94,4.63
		H247.2c0.25,11.59,3.15,20.41,8.69,26.46c5.54,6.05,12.85,9.07,21.92,9.07c6.05,0,11.09-1.23,15.12-3.69
		c4.03-2.46,7.75-5.64,11.15-9.54l4.54,3.59c-3.53,6.68-8.32,12-14.36,15.97C288.21,264.97,280.9,266.96,272.34,266.96z
		 M272.52,180.96c-3.53,0-7.09,1.01-10.68,3.02c-3.59,2.02-6.68,5.23-9.26,9.64c-2.58,4.41-4.25,10.27-5.01,17.58h34.4
		c4.54,0,7.53-0.95,8.98-2.83c1.45-1.89,2.17-4.22,2.17-6.99c0-3.65-0.92-7.02-2.74-10.11c-1.83-3.09-4.29-5.58-7.37-7.47
		C279.93,181.91,276.43,180.96,272.52,180.96z"/>
	<path class="st0" d="M363.24,234.26c-4.91,0-9.58-0.69-13.99-2.08c-3.15,4.03-4.73,8.07-4.73,12.1c0,2.52,0.72,4.54,2.17,6.05
		c1.45,1.51,4.38,2.27,8.79,2.27h24.76c10.46,0,18.14,2.14,23.06,6.43c4.91,4.29,7.37,10.27,7.37,17.96c0,5.42-1.73,10.65-5.2,15.69
		c-3.47,5.04-8.66,9.13-15.59,12.28c-6.93,3.15-15.56,4.73-25.89,4.73c-13.73,0-23.69-2.14-29.86-6.43
		c-6.17-4.29-9.26-9.77-9.26-16.44c0-4.03,1.35-7.78,4.06-11.25c2.71-3.47,7.53-6.9,14.46-10.3c-8.32-2.27-12.47-7.05-12.47-14.36
		c0-3.02,0.97-6.17,2.93-9.45c1.95-3.27,5.26-7.12,9.92-11.53c-4.54-2.52-8.1-5.98-10.68-10.4c-2.58-4.41-3.87-9.83-3.87-16.25
		c0-9.95,3.24-17.61,9.73-22.96c6.49-5.35,14.65-8.03,24.48-8.03c9.95,0,17.96,2.46,24,7.37l21.36-7.37l2.83,1.89v11.91h-18.52
		c2.9,4.66,4.35,10.4,4.35,17.2c0,9.96-3.25,17.61-9.73,22.96C381.23,231.58,373.07,234.26,363.24,234.26z M340.37,283.78
		c0,6.17,2.2,10.58,6.62,13.23c4.41,2.65,10.33,3.97,17.77,3.97c10.33,0,18.21-1.86,23.62-5.58c5.42-3.72,8.13-8.22,8.13-13.51
		c0-4.16-1.45-7.65-4.35-10.49c-2.9-2.83-7.75-4.25-14.55-4.25h-22.11c-1.26,0-2.55-0.03-3.87-0.09c-1.32-0.06-2.62-0.16-3.87-0.28
		c-2.65,2.77-4.54,5.51-5.67,8.22C340.94,277.7,340.37,280.62,340.37,283.78z M362.87,226.7c6.05,0,10.77-2.27,14.17-6.8
		c3.4-4.54,5.1-10.27,5.1-17.2c0-6.68-1.61-12.12-4.82-16.35c-3.21-4.22-7.78-6.33-13.7-6.33c-5.92,0-10.58,2.17-13.99,6.52
		s-5.1,9.99-5.1,16.92c0,6.93,1.61,12.54,4.82,16.82C352.57,224.56,357.07,226.7,362.87,226.7z"/>
	<path class="st0" d="M490.82,266.39c-4.54,0-8.32-1.32-11.34-3.97c-3.02-2.65-4.91-6.17-5.67-10.58
		c-5.17,5.04-9.7,8.82-13.61,11.34c-3.91,2.52-8.63,3.78-14.17,3.78c-6.93,0-12.88-1.98-17.86-5.95c-4.98-3.97-7.47-9.86-7.47-17.67
		c0-3.65,0.85-7.06,2.55-10.21c1.7-3.15,4.82-6.24,9.36-9.26c4.54-3.02,11.02-6.05,19.47-9.07c2.9-1.01,6.24-2.08,10.02-3.21
		c3.78-1.13,7.56-2.14,11.34-3.02v-4.72c0-9.2-1.39-15.31-4.16-18.33c-2.77-3.02-7.31-4.54-13.61-4.54c-1.39,0-2.93,0.06-4.63,0.19
		c-1.7,0.13-3.56,0.44-5.58,0.95l-3.59,12.29c-1.77,6.05-5.04,9.07-9.83,9.07c-5.29,0-8.25-2.58-8.88-7.75
		c1.76-7.18,5.95-12.88,12.57-17.1c6.62-4.22,14.71-6.33,24.29-6.33c9.95,0,17.32,2.49,22.11,7.47c4.79,4.98,7.18,13.45,7.18,25.42
		v40.26c0,4.03,0.63,6.9,1.89,8.6c1.26,1.7,2.9,2.55,4.91,2.55c1.64,0,3.02-0.38,4.16-1.13c1.13-0.76,2.2-1.76,3.21-3.02l3.78,4.16
		c-2.27,3.66-4.76,6.21-7.47,7.65C497.09,265.66,494.09,266.39,490.82,266.39z M437.52,240.5c0,5.04,1.45,8.63,4.35,10.77
		c2.9,2.14,6.49,3.21,10.77,3.21c1.89,0,3.69-0.25,5.39-0.76c1.7-0.5,3.75-1.48,6.14-2.93c2.39-1.45,5.48-3.56,9.26-6.33v-28.92
		c-3.28,0.88-6.49,1.86-9.64,2.93c-3.15,1.07-5.74,1.98-7.75,2.74c-5.42,2.14-9.45,4.35-12.1,6.62c-2.65,2.27-4.38,4.47-5.2,6.62
		C437.93,236.59,437.52,238.6,437.52,240.5z"/>
	<path class="st0" d="M515.01,264.5v-6.8l13.99-2.65c0.12-4.79,0.22-9.95,0.28-15.5c0.06-5.54,0.09-10.46,0.09-14.74v-9.07
		c0-5.17-0.03-9.45-0.09-12.85c-0.06-3.4-0.22-6.99-0.47-10.77l-14.93-1.7v-6.62l26.46-11.53l2.83,1.89l1.51,15.12
		c4.66-5.04,10.02-9.13,16.06-12.28c6.05-3.15,11.97-4.73,17.77-4.73c8.19,0,14.27,2.74,18.24,8.22c3.97,5.48,5.95,14.4,5.95,26.74
		v17.58c0,4.29,0.03,9.2,0.09,14.74c0.06,5.55,0.16,10.71,0.28,15.5l13.23,2.65v6.8h-43.85v-6.8l13.99-2.65
		c0.12-4.66,0.22-9.8,0.28-15.4c0.06-5.61,0.09-10.55,0.09-14.84v-16.06c0-8.69-1.23-14.68-3.69-17.96c-2.46-3.28-6.46-4.91-12-4.91
		c-4.28,0-8.44,0.88-12.47,2.65c-4.03,1.77-8.44,4.66-13.23,8.69v27.59c0,4.16,0.03,9.04,0.09,14.65
		c0.06,5.61,0.16,10.81,0.28,15.59l13.04,2.65v6.8H515.01z"/>
	<path class="st0" d="M674.9,145.81v-7.75h55.38v7.75l-17.39,2.08c-0.13,7.94-0.22,15.97-0.28,24.1
		c-0.07,8.13-0.09,16.29-0.09,24.48v29.48c0,9.58-0.16,17.58-0.47,24c-0.32,6.43-0.92,11.78-1.8,16.07
		c-0.88,4.28-2.11,7.87-3.69,10.77c-1.58,2.9-3.69,5.67-6.33,8.32c-3.15,3.15-6.96,5.64-11.43,7.47c-4.47,1.83-9.29,2.74-14.46,2.74
		c-3.53,0-6.9-0.66-10.11-1.98s-5.32-3.75-6.33-7.28c0.63-3.53,1.98-5.99,4.06-7.37c2.08-1.39,4.63-2.08,7.65-2.08
		c4.28,0,9.01,1.95,14.18,5.86l4.73,3.78c2.77-2.65,4.69-5.8,5.76-9.45c1.07-3.66,1.61-8.19,1.61-13.61c0-2.27-0.03-5.04-0.09-8.32
		c-0.07-3.27-0.16-7.56-0.28-12.85c-0.13-5.29-0.25-12.03-0.38-20.22c-0.13-8.19-0.28-18.33-0.47-30.43
		c-0.19-12.1-0.35-26.58-0.47-43.47L674.9,145.81z"/>
	<path class="st0" d="M784.71,266.96c-7.31,0-14.27-1.73-20.88-5.2c-6.61-3.46-12-8.69-16.16-15.69
		c-4.16-6.99-6.24-15.65-6.24-25.99c0-10.46,2.08-19.25,6.24-26.37c4.16-7.12,9.54-12.47,16.16-16.07
		c6.62-3.59,13.58-5.39,20.88-5.39c7.31,0,14.27,1.8,20.88,5.39s12.03,8.95,16.25,16.07c4.22,7.12,6.33,15.91,6.33,26.37
		c0,10.33-2.11,18.99-6.33,25.99c-4.22,6.99-9.64,12.22-16.25,15.69C798.98,265.22,792.02,266.96,784.71,266.96z M784.71,258.45
		c8.19,0,14.49-3.24,18.9-9.73c4.41-6.49,6.62-16.03,6.62-28.63c0-12.73-2.21-22.43-6.62-29.11c-4.41-6.68-10.71-10.02-18.9-10.02
		c-8.19,0-14.46,3.34-18.8,10.02c-4.35,6.68-6.52,16.38-6.52,29.11c0,12.6,2.17,22.15,6.52,28.63
		C770.25,255.21,776.52,258.45,784.71,258.45z"/>
	<path class="st0" d="M840.46,264.5v-6.8l14.17-2.65c0.12-4.79,0.22-9.98,0.28-15.59c0.06-5.6,0.09-10.49,0.09-14.65v-82.97
		l-15.5-1.89v-6.62l28.92-8.5l2.65,1.51l-0.76,26.84v36.48c4.66-5.16,10.08-9.36,16.25-12.57c6.17-3.21,12.29-4.82,18.33-4.82
		c8.19,0,14.27,2.74,18.24,8.22s5.95,14.4,5.95,26.74v17.58c0,4.29,0.03,9.2,0.09,14.74c0.06,5.55,0.16,10.71,0.28,15.5l13.23,2.65
		v6.8h-43.85v-6.8l13.8-2.46c0.12-4.79,0.22-9.98,0.28-15.59c0.06-5.61,0.1-10.55,0.1-14.84v-16.06c0-8.69-1.2-14.68-3.59-17.96
		c-2.39-3.28-6.36-4.91-11.91-4.91c-4.66,0-9.07,0.94-13.23,2.83c-4.16,1.89-8.63,5.04-13.42,9.45v26.65
		c0,4.16,0.03,9.04,0.09,14.65c0.06,5.61,0.16,10.81,0.28,15.59l13.04,2.65v6.8H840.46z"/>
	<path class="st0" d="M955.94,264.5v-6.8l13.99-2.65c0.12-4.79,0.22-9.95,0.28-15.5c0.06-5.54,0.09-10.46,0.09-14.74v-9.07
		c0-5.17-0.03-9.45-0.09-12.85c-0.06-3.4-0.22-6.99-0.47-10.77l-14.93-1.7v-6.62l26.46-11.53l2.83,1.89l1.51,15.12
		c4.66-5.04,10.02-9.13,16.07-12.28c6.05-3.15,11.97-4.73,17.77-4.73c8.19,0,14.27,2.74,18.24,8.22s5.95,14.4,5.95,26.74v17.58
		c0,4.29,0.03,9.2,0.1,14.74c0.06,5.55,0.16,10.71,0.28,15.5l13.23,2.65v6.8h-43.85v-6.8l13.99-2.65c0.12-4.66,0.22-9.8,0.28-15.4
		c0.06-5.61,0.09-10.55,0.09-14.84v-16.06c0-8.69-1.23-14.68-3.69-17.96c-2.46-3.28-6.46-4.91-12-4.91c-4.29,0-8.44,0.88-12.47,2.65
		c-4.03,1.77-8.44,4.66-13.23,8.69v27.59c0,4.16,0.03,9.04,0.09,14.65c0.06,5.61,0.16,10.81,0.28,15.59l13.04,2.65v6.8H955.94z"/>
	<path class="st0" d="M1100.71,266.96c-5.29,0-10.14-0.6-14.55-1.8c-4.41-1.2-8.95-2.99-13.61-5.39l-0.76-20.79h10.4l3.59,16.44
		c4.41,2.02,9.51,3.02,15.31,3.02c7.18,0,12.5-1.32,15.97-3.97c3.46-2.65,5.2-6.11,5.2-10.39c0-4.03-1.45-7.28-4.35-9.73
		c-2.9-2.46-7.31-4.69-13.23-6.71l-8.69-3.21c-6.93-2.52-12.47-5.79-16.63-9.83c-4.16-4.03-6.24-9.26-6.24-15.69
		c0-4.66,1.26-9.01,3.78-13.04c2.52-4.03,6.24-7.31,11.15-9.83c4.91-2.52,10.9-3.78,17.95-3.78c5.17,0,9.86,0.66,14.08,1.98
		c4.22,1.32,8.35,3.25,12.38,5.76l-0.76,19.28h-9.83l-3.02-15.12c-4.29-2.14-8.63-3.21-13.04-3.21c-5.8,0-10.18,1.17-13.14,3.5
		c-2.96,2.33-4.44,5.45-4.44,9.36c0,4.16,1.29,7.31,3.87,9.45c2.58,2.14,7.09,4.41,13.51,6.8l5.86,2.08
		c9.45,3.53,16.16,7.56,20.13,12.1c3.97,4.54,5.95,9.77,5.95,15.69c0,4.79-1.39,9.23-4.16,13.32c-2.77,4.1-6.87,7.4-12.29,9.92
		C1115.71,265.69,1108.9,266.96,1100.71,266.96z"/>
	<path class="st0" d="M1196.72,266.96c-7.31,0-14.27-1.73-20.88-5.2c-6.61-3.46-12-8.69-16.16-15.69
		c-4.16-6.99-6.24-15.65-6.24-25.99c0-10.46,2.08-19.25,6.24-26.37c4.16-7.12,9.54-12.47,16.16-16.07
		c6.62-3.59,13.58-5.39,20.88-5.39c7.31,0,14.27,1.8,20.88,5.39s12.03,8.95,16.25,16.07c4.22,7.12,6.33,15.91,6.33,26.37
		c0,10.33-2.11,18.99-6.33,25.99c-4.22,6.99-9.64,12.22-16.25,15.69C1210.99,265.22,1204.03,266.96,1196.72,266.96z M1196.72,258.45
		c8.19,0,14.49-3.24,18.9-9.73c4.41-6.49,6.62-16.03,6.62-28.63c0-12.73-2.21-22.43-6.62-29.11c-4.41-6.68-10.71-10.02-18.9-10.02
		c-8.19,0-14.46,3.34-18.8,10.02c-4.35,6.68-6.52,16.38-6.52,29.11c0,12.6,2.17,22.15,6.52,28.63
		C1182.27,255.21,1188.53,258.45,1196.72,258.45z"/>
	<path class="st0" d="M1256.26,264.5v-6.8l13.99-2.65c0.12-4.79,0.22-9.95,0.28-15.5c0.06-5.54,0.09-10.46,0.09-14.74v-9.07
		c0-5.17-0.03-9.45-0.09-12.85c-0.07-3.4-0.22-6.99-0.47-10.77l-14.93-1.7v-6.62l26.46-11.53l2.83,1.89l1.51,15.12
		c4.66-5.04,10.02-9.13,16.07-12.28c6.05-3.15,11.97-4.73,17.77-4.73c8.19,0,14.27,2.74,18.24,8.22s5.95,14.4,5.95,26.74v17.58
		c0,4.29,0.03,9.2,0.09,14.74c0.06,5.55,0.16,10.71,0.28,15.5l13.23,2.65v6.8h-43.85v-6.8l13.99-2.65c0.12-4.66,0.22-9.8,0.28-15.4
		c0.06-5.61,0.09-10.55,0.09-14.84v-16.06c0-8.69-1.23-14.68-3.69-17.96c-2.46-3.28-6.46-4.91-12-4.91c-4.29,0-8.44,0.88-12.47,2.65
		c-4.03,1.77-8.44,4.66-13.23,8.69v27.59c0,4.16,0.03,9.04,0.1,14.65c0.06,5.61,0.16,10.81,0.28,15.59l13.04,2.65v6.8H1256.26z"/>
</g>
</svg>
