<?xml version="1.0" encoding="utf-8"?>
<!-- Generator: Adobe Illustrator 25.2.1, SVG Export Plug-In . SVG Version: 6.00 Build 0)  -->
<svg version="1.1" id="Layer_1" xmlns="http://www.w3.org/2000/svg" xmlns:xlink="http://www.w3.org/1999/xlink" x="0px" y="0px"
	 viewBox="0 0 400 400" style="enable-background:new 0 0 400 400;" xml:space="preserve">
<style type="text/css">
	.st0{fill:#FFFFFF;}
	.st1{fill:#FFFFFF;stroke:#F1F2F2;stroke-miterlimit:10;}
	.st2{fill:#FFFFFF;stroke:#EF3B39;stroke-miterlimit:10;}
</style>
<path class="st0" d="M146.23,380.49"/>
<path class="st1" d="M146.23,360.35C77.89,339.18,28.26,275.48,28.26,200.18S77.89,61.19,146.23,40.02V19.89
	C67.44,41.99,9.67,114.34,9.67,200.18s57.77,158.19,136.56,180.3V360.35z"/>
<path class="st1" d="M166.84,35.05c9.44-1.65,19.16-2.52,29.07-2.52c49.53,0,94.04,21.49,124.74,55.64l14.4-14.4
	c-34.23-37.39-83.44-60.84-138.13-60.84c-10.24,0-20.28,0.83-30.07,2.42V35.05z"/>
<path class="st1" d="M295.68,334.93c-27.88,20.68-62.39,32.91-99.77,32.91c-9.92,0-19.63-0.87-29.07-2.52v19.7
	c9.79,1.58,19.83,2.42,30.07,2.42c41.95,0,80.69-13.8,111.9-37.11L295.68,334.93z"/>
<path class="st1" d="M333.54,104.44c18.92,27.15,30.03,60.15,30.03,95.75c0,47.8-20.01,90.93-52.11,121.47l13.17,15.44
	c36.62-34.18,59.53-82.87,59.53-136.91c0-41.28-13.37-79.42-35.99-110.38L333.54,104.44z"/>
<g>
	<path class="st2" d="M219.21,318.91c-7.38,0-13.82-0.77-19.3-2.32v-27.21c5.63,1.41,10.76,2.11,15.4,2.11
		c7.17,0,12.3-2.23,15.4-6.7c3.09-4.47,4.64-11.44,4.64-20.94V119.36h32.7v144.28c0,18-4.11,31.71-12.34,41.13
		C247.48,314.19,235.31,318.91,219.21,318.91z"/>
</g>
<g>
	<path class="st1" d="M236.61,273.55h-37.12l-40.39-64.97l-13.82,9.91v55.05h-32.7v-154.2h32.7v70.56l12.87-18.14l41.77-52.42h36.28
		L182.4,187.6L236.61,273.55z"/>
</g>
</svg>
